%TF.GenerationSoftware,KiCad,Pcbnew,9.0.0*%
%TF.CreationDate,2025-04-30T04:56:49+01:00*%
%TF.ProjectId,soil_moisture,736f696c-5f6d-46f6-9973-747572652e6b,rev?*%
%TF.SameCoordinates,Original*%
%TF.FileFunction,Legend,Top*%
%TF.FilePolarity,Positive*%
%FSLAX46Y46*%
G04 Gerber Fmt 4.6, Leading zero omitted, Abs format (unit mm)*
G04 Created by KiCad (PCBNEW 9.0.0) date 2025-04-30 04:56:49*
%MOMM*%
%LPD*%
G01*
G04 APERTURE LIST*
%ADD10C,0.150000*%
%ADD11C,0.120000*%
G04 APERTURE END LIST*
D10*
X258098333Y-131714819D02*
X257765000Y-131238628D01*
X257526905Y-131714819D02*
X257526905Y-130714819D01*
X257526905Y-130714819D02*
X257907857Y-130714819D01*
X257907857Y-130714819D02*
X258003095Y-130762438D01*
X258003095Y-130762438D02*
X258050714Y-130810057D01*
X258050714Y-130810057D02*
X258098333Y-130905295D01*
X258098333Y-130905295D02*
X258098333Y-131048152D01*
X258098333Y-131048152D02*
X258050714Y-131143390D01*
X258050714Y-131143390D02*
X258003095Y-131191009D01*
X258003095Y-131191009D02*
X257907857Y-131238628D01*
X257907857Y-131238628D02*
X257526905Y-131238628D01*
X258479286Y-130810057D02*
X258526905Y-130762438D01*
X258526905Y-130762438D02*
X258622143Y-130714819D01*
X258622143Y-130714819D02*
X258860238Y-130714819D01*
X258860238Y-130714819D02*
X258955476Y-130762438D01*
X258955476Y-130762438D02*
X259003095Y-130810057D01*
X259003095Y-130810057D02*
X259050714Y-130905295D01*
X259050714Y-130905295D02*
X259050714Y-131000533D01*
X259050714Y-131000533D02*
X259003095Y-131143390D01*
X259003095Y-131143390D02*
X258431667Y-131714819D01*
X258431667Y-131714819D02*
X259050714Y-131714819D01*
X250113095Y-130604819D02*
X250113095Y-131414342D01*
X250113095Y-131414342D02*
X250160714Y-131509580D01*
X250160714Y-131509580D02*
X250208333Y-131557200D01*
X250208333Y-131557200D02*
X250303571Y-131604819D01*
X250303571Y-131604819D02*
X250494047Y-131604819D01*
X250494047Y-131604819D02*
X250589285Y-131557200D01*
X250589285Y-131557200D02*
X250636904Y-131509580D01*
X250636904Y-131509580D02*
X250684523Y-131414342D01*
X250684523Y-131414342D02*
X250684523Y-130604819D01*
X251684523Y-131604819D02*
X251113095Y-131604819D01*
X251398809Y-131604819D02*
X251398809Y-130604819D01*
X251398809Y-130604819D02*
X251303571Y-130747676D01*
X251303571Y-130747676D02*
X251208333Y-130842914D01*
X251208333Y-130842914D02*
X251113095Y-130890533D01*
D11*
%TO.C,RV1*%
X246140000Y-142325000D02*
X246140000Y-144345000D01*
X246140000Y-142325000D02*
X247659000Y-142325000D01*
X246140000Y-143335000D02*
X246899000Y-143335000D01*
X246140000Y-144345000D02*
X247659000Y-144345000D01*
X247659000Y-142325000D02*
X247659000Y-144345000D01*
X247660000Y-141921000D02*
X247660000Y-144975000D01*
X247660000Y-144975000D02*
X250120000Y-144975000D01*
X249250000Y-140415000D02*
X252660000Y-140415000D01*
X251790000Y-144975000D02*
X254250000Y-144975000D01*
X254250000Y-141921000D02*
X254250000Y-144975000D01*
%TO.C,D1*%
X255775000Y-138920000D02*
X259635000Y-138920000D01*
X255775000Y-142770000D02*
X255775000Y-138920000D01*
X259105000Y-142770000D02*
X255775000Y-142770000D01*
X259635000Y-138920000D02*
X259635000Y-142770000D01*
%TO.C,R2*%
X258027742Y-132167500D02*
X258502258Y-132167500D01*
X258027742Y-133212500D02*
X258502258Y-133212500D01*
%TO.C,R3*%
X258027742Y-134677500D02*
X258502258Y-134677500D01*
X258027742Y-135722500D02*
X258502258Y-135722500D01*
%TO.C,U1*%
X248225000Y-132150000D02*
X248225000Y-137350000D01*
X248225000Y-137350000D02*
X253525000Y-137350000D01*
X249875000Y-132150000D02*
X248225000Y-132150000D01*
X253525000Y-132150000D02*
X251875000Y-132150000D01*
X253525000Y-137350000D02*
X253525000Y-132150000D01*
X251875000Y-132150000D02*
G75*
G02*
X249875000Y-132150000I-1000000J0D01*
G01*
%TD*%
M02*
