%TF.GenerationSoftware,KiCad,Pcbnew,9.0.0*%
%TF.CreationDate,2025-04-30T04:56:49+01:00*%
%TF.ProjectId,soil_moisture,736f696c-5f6d-46f6-9973-747572652e6b,rev?*%
%TF.SameCoordinates,Original*%
%TF.FileFunction,Copper,L1,Top*%
%TF.FilePolarity,Positive*%
%FSLAX46Y46*%
G04 Gerber Fmt 4.6, Leading zero omitted, Abs format (unit mm)*
G04 Created by KiCad (PCBNEW 9.0.0) date 2025-04-30 04:56:49*
%MOMM*%
%LPD*%
G01*
G04 APERTURE LIST*
G04 Aperture macros list*
%AMRoundRect*
0 Rectangle with rounded corners*
0 $1 Rounding radius*
0 $2 $3 $4 $5 $6 $7 $8 $9 X,Y pos of 4 corners*
0 Add a 4 corners polygon primitive as box body*
4,1,4,$2,$3,$4,$5,$6,$7,$8,$9,$2,$3,0*
0 Add four circle primitives for the rounded corners*
1,1,$1+$1,$2,$3*
1,1,$1+$1,$4,$5*
1,1,$1+$1,$6,$7*
1,1,$1+$1,$8,$9*
0 Add four rect primitives between the rounded corners*
20,1,$1+$1,$2,$3,$4,$5,0*
20,1,$1+$1,$4,$5,$6,$7,0*
20,1,$1+$1,$6,$7,$8,$9,0*
20,1,$1+$1,$8,$9,$2,$3,0*%
G04 Aperture macros list end*
%TA.AperFunction,SMDPad,CuDef*%
%ADD10R,1.190000X2.790000*%
%TD*%
%TA.AperFunction,SMDPad,CuDef*%
%ADD11RoundRect,0.100000X-0.130000X-0.100000X0.130000X-0.100000X0.130000X0.100000X-0.130000X0.100000X0*%
%TD*%
%TA.AperFunction,SMDPad,CuDef*%
%ADD12R,0.550000X0.380000*%
%TD*%
%TA.AperFunction,SMDPad,CuDef*%
%ADD13R,1.400000X1.200000*%
%TD*%
%TA.AperFunction,SMDPad,CuDef*%
%ADD14RoundRect,0.200000X-0.200000X-0.275000X0.200000X-0.275000X0.200000X0.275000X-0.200000X0.275000X0*%
%TD*%
%TA.AperFunction,ComponentPad*%
%ADD15RoundRect,0.250000X-0.550000X-0.550000X0.550000X-0.550000X0.550000X0.550000X-0.550000X0.550000X0*%
%TD*%
%TA.AperFunction,ComponentPad*%
%ADD16C,1.600000*%
%TD*%
%TA.AperFunction,Conductor*%
%ADD17C,0.200000*%
%TD*%
G04 APERTURE END LIST*
D10*
%TO.P,RV1,1,1*%
%TO.N,/vcc*%
X253495000Y-140285000D03*
%TO.P,RV1,2,2*%
X250955000Y-145115000D03*
%TO.P,RV1,3,3*%
%TO.N,/gnd*%
X248415000Y-140285000D03*
%TD*%
D11*
%TO.P,R1,1*%
%TO.N,/vcc*%
X255835000Y-144500000D03*
%TO.P,R1,2*%
%TO.N,/gnd*%
X256475000Y-144500000D03*
%TD*%
D12*
%TO.P,D1,1,K*%
%TO.N,/gnd*%
X258155000Y-141790000D03*
%TO.P,D1,2,A*%
%TO.N,Net-(D1-A)*%
X257255000Y-141790000D03*
D13*
%TO.P,D1,3*%
%TO.N,N/C*%
X257705000Y-140750000D03*
%TD*%
D14*
%TO.P,R2,1*%
%TO.N,/gnd*%
X257440000Y-132690000D03*
%TO.P,R2,2*%
X259090000Y-132690000D03*
%TD*%
%TO.P,R3,1*%
%TO.N,/vcc*%
X257440000Y-135200000D03*
%TO.P,R3,2*%
%TO.N,Net-(D1-A)*%
X259090000Y-135200000D03*
%TD*%
D15*
%TO.P,U1,1*%
%TO.N,N/C*%
X247065000Y-133480000D03*
D16*
%TO.P,U1,2*%
X247065000Y-136020000D03*
%TO.P,U1,3*%
X254685000Y-136020000D03*
%TO.P,U1,4,V-*%
%TO.N,/gnd*%
X254685000Y-133480000D03*
%TD*%
D17*
%TO.N,Net-(D1-A)*%
X256780000Y-141790000D02*
X256723914Y-141733914D01*
X256723914Y-137566086D02*
X259090000Y-135200000D01*
X257255000Y-141790000D02*
X256780000Y-141790000D01*
X256723914Y-141733914D02*
X256723914Y-137566086D01*
%TO.N,/gnd*%
X259710000Y-141790000D02*
X258155000Y-141790000D01*
X255000000Y-131250000D02*
X260250000Y-131250000D01*
X248415000Y-146415000D02*
X248791086Y-146791086D01*
X256500000Y-146500000D02*
X256475000Y-146475000D01*
X260500000Y-141000000D02*
X259710000Y-141790000D01*
X260500000Y-131500000D02*
X260500000Y-141000000D01*
X254685000Y-131565000D02*
X255000000Y-131250000D01*
X254685000Y-133480000D02*
X254685000Y-131565000D01*
X259090000Y-132690000D02*
X257440000Y-132690000D01*
X258155000Y-144095000D02*
X258155000Y-141790000D01*
X256475000Y-144500000D02*
X257750000Y-144500000D01*
X260250000Y-131250000D02*
X260500000Y-131500000D01*
X255310000Y-132690000D02*
X257440000Y-132690000D01*
X254685000Y-133315000D02*
X255310000Y-132690000D01*
X248791086Y-146791086D02*
X256208914Y-146791086D01*
X256208914Y-146791086D02*
X256500000Y-146500000D01*
X248415000Y-140285000D02*
X248415000Y-146415000D01*
X254685000Y-133480000D02*
X254685000Y-133315000D01*
X256475000Y-146475000D02*
X256475000Y-144500000D01*
X257750000Y-144500000D02*
X258155000Y-144095000D01*
%TO.N,/vcc*%
X257440000Y-135200000D02*
X253495000Y-139145000D01*
X253495000Y-139145000D02*
X253495000Y-140285000D01*
X255835000Y-144500000D02*
X255835000Y-140585000D01*
X250955000Y-145115000D02*
X255220000Y-145115000D01*
X255535000Y-140285000D02*
X253495000Y-140285000D01*
X255835000Y-140585000D02*
X255535000Y-140285000D01*
X255220000Y-145115000D02*
X255835000Y-144500000D01*
%TD*%
M02*
